<mxfile host="app.diagrams.net" modified="2021-06-24T13:18:09.670Z" agent="5.0 (X11; Linux x86_64) AppleWebKit/537.36 (KHTML, like Gecko) Chrome/91.0.4472.114 Safari/537.36" etag="ZS1Qzzz3vmZTx7AWle-3" version="14.6.13" type="github">
  <diagram id="C5RBs43oDa-KdzZeNtuy" name="Page-1">
    <mxGraphModel dx="1268" dy="401" grid="0" gridSize="10" guides="1" tooltips="1" connect="1" arrows="1" fold="1" page="0" pageScale="1" pageWidth="827" pageHeight="1169" math="0" shadow="0">
      <root>
        <mxCell id="WIyWlLk6GJQsqaUBKTNV-0" />
        <mxCell id="WIyWlLk6GJQsqaUBKTNV-1" parent="WIyWlLk6GJQsqaUBKTNV-0" />
        <mxCell id="QB-hrhWgAR027L08079Y-3" value="" style="edgeStyle=orthogonalEdgeStyle;rounded=0;orthogonalLoop=1;jettySize=auto;html=1;" edge="1" parent="WIyWlLk6GJQsqaUBKTNV-1" source="QB-hrhWgAR027L08079Y-1" target="QB-hrhWgAR027L08079Y-5">
          <mxGeometry relative="1" as="geometry">
            <mxPoint x="285" y="128" as="targetPoint" />
          </mxGeometry>
        </mxCell>
        <mxCell id="QB-hrhWgAR027L08079Y-1" value="" style="ellipse;html=1;shape=endState;fillColor=#000000;strokeColor=#ff0000;" vertex="1" parent="WIyWlLk6GJQsqaUBKTNV-1">
          <mxGeometry x="-23" y="113" width="30" height="30" as="geometry" />
        </mxCell>
        <mxCell id="QB-hrhWgAR027L08079Y-4" value="Khởi động App lần đầu " style="text;align=center;fontStyle=1;verticalAlign=middle;spacingLeft=3;spacingRight=3;strokeColor=none;rotatable=0;points=[[0,0.5],[1,0.5]];portConstraint=eastwest;fillColor=none;gradientColor=none;" vertex="1" parent="WIyWlLk6GJQsqaUBKTNV-1">
          <mxGeometry x="-63" y="139" width="80" height="38" as="geometry" />
        </mxCell>
        <mxCell id="QB-hrhWgAR027L08079Y-7" value="" style="edgeStyle=orthogonalEdgeStyle;rounded=0;orthogonalLoop=1;jettySize=auto;html=1;" edge="1" parent="WIyWlLk6GJQsqaUBKTNV-1" source="QB-hrhWgAR027L08079Y-5" target="QB-hrhWgAR027L08079Y-6">
          <mxGeometry relative="1" as="geometry" />
        </mxCell>
        <mxCell id="QB-hrhWgAR027L08079Y-10" value="" style="edgeStyle=orthogonalEdgeStyle;rounded=0;orthogonalLoop=1;jettySize=auto;html=1;entryX=0;entryY=0.5;entryDx=0;entryDy=0;" edge="1" parent="WIyWlLk6GJQsqaUBKTNV-1" source="QB-hrhWgAR027L08079Y-5" target="QB-hrhWgAR027L08079Y-5">
          <mxGeometry relative="1" as="geometry">
            <mxPoint x="438" y="50" as="targetPoint" />
            <Array as="points">
              <mxPoint x="353" y="50" />
              <mxPoint x="268" y="50" />
            </Array>
          </mxGeometry>
        </mxCell>
        <mxCell id="QB-hrhWgAR027L08079Y-5" value="&lt;meta charset=&quot;utf-8&quot;&gt;&lt;span style=&quot;color: rgb(0, 0, 0); font-family: helvetica; font-size: 12px; font-style: normal; letter-spacing: normal; text-align: center; text-indent: 0px; text-transform: none; word-spacing: 0px; background-color: rgb(255, 255, 255); display: inline; float: none;&quot;&gt;Nhập mật khẩu khởi tạo và nhập lại để xác nhận.&lt;/span&gt;" style="rhombus;whiteSpace=wrap;html=1;fillColor=none;gradientColor=none;fontStyle=1" vertex="1" parent="WIyWlLk6GJQsqaUBKTNV-1">
          <mxGeometry x="268" y="88" width="170" height="80" as="geometry" />
        </mxCell>
        <mxCell id="QB-hrhWgAR027L08079Y-6" value="&lt;b&gt;Hoàn tất tiến hành đăng nhập.&lt;/b&gt;" style="whiteSpace=wrap;html=1;fillColor=none;" vertex="1" parent="WIyWlLk6GJQsqaUBKTNV-1">
          <mxGeometry x="293" y="258" width="120" height="60" as="geometry" />
        </mxCell>
        <mxCell id="QB-hrhWgAR027L08079Y-8" value="&lt;b&gt;yes&lt;/b&gt;" style="text;html=1;strokeColor=none;fillColor=none;align=center;verticalAlign=middle;whiteSpace=wrap;rounded=0;" vertex="1" parent="WIyWlLk6GJQsqaUBKTNV-1">
          <mxGeometry x="357" y="203" width="40" height="20" as="geometry" />
        </mxCell>
        <mxCell id="QB-hrhWgAR027L08079Y-9" value="&lt;b&gt;No&lt;/b&gt;" style="text;html=1;strokeColor=none;fillColor=none;align=center;verticalAlign=middle;whiteSpace=wrap;rounded=0;" vertex="1" parent="WIyWlLk6GJQsqaUBKTNV-1">
          <mxGeometry x="286" y="28" width="40" height="20" as="geometry" />
        </mxCell>
      </root>
    </mxGraphModel>
  </diagram>
</mxfile>
